<svg xmlns="http://www.w3.org/2000/svg" version="1.1" xmlns:xlink="http://www.w3.org/1999/xlink" width="1000" height="1000"><g clip-path="url(#SvgjsClipPath1022)"><rect width="1000" height="1000" fill="#ffffff"></rect><g transform="matrix(14,0,0,14,150,150)"><svg xmlns="http://www.w3.org/2000/svg" version="1.1" xmlns:xlink="http://www.w3.org/1999/xlink" width="50" height="50"><svg version="1.1" xmlns="http://www.w3.org/2000/svg" width="50" height="50">
<path d="M0 0 C0.99457718 0.00212242 0.99457718 0.00212242 2.00924683 0.00428772 C4.12860613 0.00988871 6.24786009 0.02244125 8.3671875 0.03515625 C9.80338389 0.04017113 11.23958194 0.04473406 12.67578125 0.04882812 C16.19795095 0.05985843 19.72005895 0.07712366 23.2421875 0.09765625 C23.33508057 0.70383789 23.42797363 1.31001953 23.52368164 1.93457031 C24.41279081 7.09415469 24.41279081 7.09415469 27.30078125 11.33203125 C28.08582031 11.8321875 28.87085938 12.33234375 29.6796875 12.84765625 C33.31590124 15.21988136 35.40313708 17.10824279 37.2421875 21.09765625 C37.7109375 24.25390625 37.7109375 24.25390625 37.7421875 27.59765625 C37.773125 28.70109375 37.8040625 29.80453125 37.8359375 30.94140625 C37.04395005 35.1514448 35.56374351 36.44102299 32.2421875 39.09765625 C28.82885742 39.6652832 28.82885742 39.6652832 24.97265625 39.5859375 C24.29165359 39.57886276 23.61065094 39.57178802 22.90901184 39.5644989 C20.74808755 39.53665694 18.58981928 39.47395152 16.4296875 39.41015625 C14.95902198 39.38505957 13.48831557 39.36224878 12.01757812 39.34179688 C8.42492793 39.28686813 4.83381722 39.20067272 1.2421875 39.09765625 C1.0153125 37.8653125 0.7884375 36.63296875 0.5546875 35.36328125 C-0.51010583 31.1078572 -2.10293939 29.37631846 -5.7578125 26.84765625 C-11.55336793 22.77055039 -11.55336793 22.77055039 -12.7578125 19.09765625 C-13.09375 16.0390625 -13.09375 16.0390625 -13.1328125 12.66015625 C-13.16117188 11.54769531 -13.18953125 10.43523438 -13.21875 9.2890625 C-12.66455118 5.45194018 -11.43759152 3.8421883 -8.7578125 1.09765625 C-5.8358356 -0.3633322 -3.25887775 -0.01369276 0 0 Z M-1.7578125 11.09765625 C-0.61333272 16.82005515 0.43769301 17.59489929 4.7421875 21.22265625 C10.14398391 25.80304547 10.14398391 25.80304547 11.2421875 29.09765625 C16.1921875 29.09765625 21.1421875 29.09765625 26.2421875 29.09765625 C25.87676976 23.29865965 25.87676976 23.29865965 23.02734375 20.90234375 C22.12886719 20.26554687 21.23039062 19.62875 20.3046875 18.97265625 C16.627845 16.33802666 15.32878125 15.27084374 13.2421875 11.09765625 C8.2921875 11.09765625 3.3421875 11.09765625 -1.7578125 11.09765625 Z " fill="#3B6BA7" transform="translate(12.7578125,4.90234375)"></path>
</svg></svg></g></g><defs><clipPath id="SvgjsClipPath1022"><rect width="1000" height="1000" x="0" y="0" rx="250" ry="250"></rect></clipPath></defs></svg>